<svg width="29" height="28" viewBox="0 0 29 28" fill="none" xmlns="http://www.w3.org/2000/svg">
<path d="M23.1387 16.4911C23.5411 16.4911 23.9434 16.5358 24.3357 16.6235C25.013 16.7741 25.4388 17.4409 25.2846 18.1078C25.1287 18.7747 24.4547 19.1966 23.7791 19.0428C22.0356 18.6489 20.2921 20.0207 20.2921 21.783C20.2921 23.3319 21.5679 24.5928 23.1387 24.5928C24.7079 24.5928 25.9853 23.3319 25.9853 21.783C25.9853 21.6242 25.9719 21.467 25.9468 21.3164C25.8311 20.6396 26.2955 20.0009 26.9795 19.8867C27.6618 19.7742 28.3122 20.2309 28.4262 20.9077C28.4749 21.1923 28.5 21.4852 28.5 21.783C28.5 24.7004 26.0943 27.075 23.1387 27.075C20.1815 27.075 17.7775 24.7004 17.7775 21.783C17.7775 18.864 20.1815 16.4911 23.1387 16.4911ZM11.5674 20.5416C12.2615 20.5416 12.8248 21.0976 12.8248 21.7827C12.8248 22.4678 12.2615 23.0238 11.5674 23.0238H1.25733C0.563284 23.0238 0 22.4678 0 21.7827C0 21.0976 0.563284 20.5416 1.25733 20.5416H11.5674ZM5.36176 0C8.319 0 10.723 2.37294 10.723 5.29195C10.723 8.20931 8.319 10.5839 5.36176 10.5839C2.40452 10.5839 0.000502932 8.20931 0.000502932 5.29195C0.000502932 4.99409 0.0256496 4.7012 0.0742663 4.41658C0.188264 3.73978 0.828665 3.28803 1.52103 3.39559C2.20502 3.50977 2.6694 4.14851 2.55372 4.82531C2.52858 4.97589 2.51516 5.13309 2.51516 5.29195C2.51516 6.84082 3.79094 8.10175 5.36176 8.10175C6.93259 8.10175 8.20836 6.84082 8.20836 5.29195C8.20836 3.74143 6.93259 2.48215 5.36176 2.48215C5.14718 2.48215 4.93259 2.50532 4.72807 2.55165C4.04911 2.71217 3.37518 2.29186 3.21759 1.62498C3.06001 0.958111 3.48079 0.289585 4.15808 0.135691C4.55036 0.0446788 4.95439 0 5.36176 0ZM27.2423 4.05038C27.9364 4.05038 28.4997 4.60638 28.4997 5.29145C28.4997 5.97653 27.9364 6.53253 27.2423 6.53253H16.9339C16.2399 6.53253 15.6766 5.97653 15.6766 5.29145C15.6766 4.60638 16.2399 4.05038 16.9339 4.05038H27.2423Z" fill="#446DF6"/>
</svg>
